<svg width="51" height="51" viewBox="0 0 51 51" fill="none" xmlns="http://www.w3.org/2000/svg">
<rect x="0.530273" y="0.0126953" width="50" height="50" rx="25" fill="url(#paint0_linear_70_1923)"/>
<path d="M32.7969 28.2127C32.2192 27.6349 31.5303 27.346 30.7303 27.346C29.9303 27.346 29.2414 27.6349 28.6636 28.2127L27.4636 29.4127C26.0414 28.8349 24.7858 28.0016 23.6969 26.9127C22.6081 25.8238 21.7525 24.5683 21.1303 23.146L22.3303 21.8794C22.9081 21.3016 23.1969 20.6127 23.1969 19.8127C23.1969 19.0127 22.9081 18.3238 22.3303 17.746L19.5303 15.0127H19.3303C18.2636 15.0127 17.3636 15.3794 16.6303 16.1127C15.8969 16.846 15.5303 17.746 15.5303 18.8127C15.5303 20.9905 15.9525 23.0683 16.7969 25.046C17.6414 27.0238 18.8081 28.7571 20.2969 30.246C21.7858 31.7349 23.5192 32.9016 25.4969 33.746C27.4747 34.5905 29.5525 35.0127 31.7303 35.0127C32.7969 35.0127 33.6969 34.646 34.4303 33.9127C35.1636 33.1794 35.5303 32.2794 35.5303 31.2127V31.0127L32.7969 28.2127ZM31.7303 33.8127C29.0192 33.8127 26.5081 33.146 24.1969 31.8127C21.8858 30.4794 20.0636 28.6571 18.7303 26.346C17.3969 24.0349 16.7303 21.5238 16.7303 18.8127C16.7303 18.146 16.9525 17.5571 17.3969 17.046C17.8414 16.5349 18.3969 16.2571 19.0636 16.2127L21.5303 18.6127C21.8414 18.9238 21.9969 19.3238 21.9969 19.8127C21.9969 20.3016 21.8414 20.7238 21.5303 21.0794L19.7969 22.8127L19.9303 23.2127C20.5525 24.9016 21.5081 26.3905 22.7969 27.6794C24.0858 28.9683 25.5747 29.946 27.2636 30.6127L27.7303 30.8127L29.4636 29.0794C29.8192 28.7238 30.2414 28.546 30.7303 28.546C31.2192 28.546 31.6414 28.7238 31.9969 29.0794L34.3303 31.4794C34.2858 32.146 34.0081 32.7016 33.4969 33.146C32.9858 33.5905 32.3969 33.8127 31.7303 33.8127ZM32.5969 17.946C31.6636 17.0127 30.5858 16.2905 29.3636 15.7794C28.1414 15.2682 26.8636 15.0127 25.5303 15.0127V16.2127C27.1303 16.2127 28.6081 16.6016 29.9636 17.3794C31.3192 18.1571 32.3858 19.2238 33.1636 20.5794C33.9414 21.9349 34.3303 23.4127 34.3303 25.0127H35.5303C35.5303 23.6794 35.2747 22.4016 34.7636 21.1794C34.2525 19.9571 33.5303 18.8794 32.5969 17.946ZM25.5303 18.546V19.6794C26.5081 19.6794 27.3969 19.9238 28.1969 20.4127C28.9969 20.9016 29.6414 21.546 30.1303 22.346C30.6192 23.146 30.8636 24.0349 30.8636 25.0127H31.9969C31.9969 23.8571 31.7081 22.7794 31.1303 21.7794C30.5525 20.7794 29.7636 19.9905 28.7636 19.4127C27.7636 18.8349 26.6858 18.546 25.5303 18.546Z" fill="#DDDDDD"/>
<defs>
<linearGradient id="paint0_linear_70_1923" x1="15.1846" y1="-5.03321" x2="35.8759" y2="55.0586" gradientUnits="userSpaceOnUse">
<stop stop-color="#2A1454"/>
<stop offset="1" stop-color="#8750F7"/>
</linearGradient>
</defs>
</svg>
