<svg width="51" height="51" viewBox="0 0 51 51" fill="none" xmlns="http://www.w3.org/2000/svg">
<rect x="0.530273" y="0.0126953" width="50" height="50" rx="25" fill="url(#paint0_linear_70_1934)"/>
<path d="M33.1969 16.8793H17.8636C17.2414 16.8793 16.6969 17.1127 16.2303 17.5793C15.7636 18.046 15.5303 18.5904 15.5303 19.2127V21.146L24.1303 27.546C24.5303 27.8571 24.9969 28.0127 25.5303 28.0127C26.0636 28.0127 26.5303 27.8571 26.9303 27.546L35.5303 21.146V19.2127C35.5303 18.5904 35.2969 18.046 34.8303 17.5793C34.3636 17.1127 33.8192 16.8793 33.1969 16.8793ZM33.9969 20.4127L25.9969 26.2793C25.8636 26.4127 25.7081 26.4793 25.5303 26.4793C25.3525 26.4793 25.1969 26.4127 25.0636 26.2793L17.0636 20.4127V19.2127C17.0636 18.9904 17.1414 18.8127 17.2969 18.6793C17.4525 18.546 17.6414 18.4793 17.8636 18.4793H33.1969C33.4192 18.4793 33.6081 18.546 33.7636 18.6793C33.9192 18.8127 33.9969 18.9904 33.9969 19.2127V20.4127ZM33.9969 24.2793L35.5303 23.0793V30.8127C35.5303 31.4349 35.2969 31.9793 34.8303 32.446C34.3636 32.9127 33.8192 33.146 33.1969 33.146H17.8636C17.2414 33.146 16.6969 32.9127 16.2303 32.446C15.7636 31.9793 15.5303 31.4349 15.5303 30.8127V23.0793L17.0636 24.2793V30.8127C17.0636 31.0349 17.1414 31.2127 17.2969 31.346C17.4525 31.4793 17.6414 31.546 17.8636 31.546H33.1969C33.4192 31.546 33.6081 31.4793 33.7636 31.346C33.9192 31.2127 33.9969 31.0349 33.9969 30.8127V24.2793Z" fill="#DDDDDD"/>
<defs>
<linearGradient id="paint0_linear_70_1934" x1="15.1846" y1="-5.03321" x2="35.8759" y2="55.0586" gradientUnits="userSpaceOnUse">
<stop stop-color="#2A1454"/>
<stop offset="1" stop-color="#8750F7"/>
</linearGradient>
</defs>
</svg>
