<svg width="51" height="51" viewBox="0 0 51 51" fill="none" xmlns="http://www.w3.org/2000/svg">
<rect x="0.530273" y="0.0126953" width="50" height="50" rx="25" fill="url(#paint0_linear_70_1945)"/>
<path d="M25.5303 20.2125C24.6859 20.2125 23.9526 20.5236 23.3303 21.1458C22.7081 21.768 22.397 22.5014 22.397 23.3458C22.397 24.1902 22.7081 24.9236 23.3303 25.5458C23.9526 26.168 24.6859 26.4791 25.5303 26.4791C26.3748 26.4791 27.1081 26.168 27.7303 25.5458C28.3526 24.9236 28.6637 24.1902 28.6637 23.3458C28.6637 22.5014 28.3526 21.768 27.7303 21.1458C27.1081 20.5236 26.3748 20.2125 25.5303 20.2125ZM23.6637 23.3458C23.6637 22.8125 23.8414 22.368 24.197 22.0125C24.5526 21.6569 24.997 21.4791 25.5303 21.4791C26.0637 21.4791 26.5081 21.6569 26.8637 22.0125C27.2192 22.368 27.397 22.8125 27.397 23.3458C27.397 23.8791 27.2192 24.3236 26.8637 24.6791C26.5081 25.0347 26.0637 25.2125 25.5303 25.2125C24.997 25.2125 24.5526 25.0347 24.197 24.6791C23.8414 24.3236 23.6637 23.8791 23.6637 23.3458ZM25.5303 15.2125C24.197 15.2125 22.9748 15.568 21.8637 16.2791C20.7526 16.9902 19.8748 17.9458 19.2303 19.1458C18.5859 20.3458 18.2637 21.6347 18.2637 23.0125C18.2637 24.2125 18.7748 25.7014 19.797 27.4791C20.5081 28.8125 21.4859 30.2569 22.7303 31.8125V31.8791C23.3526 32.5902 23.7748 33.0791 23.997 33.3458C24.4859 33.7458 24.997 33.9458 25.5303 33.9458C26.0637 33.9458 26.5748 33.7458 27.0637 33.3458C27.2859 33.0791 27.7081 32.5902 28.3303 31.8791V31.8125C29.5748 30.2569 30.5526 28.8125 31.2637 27.4791C32.2859 25.7014 32.797 24.2125 32.797 23.0125C32.797 21.6347 32.4748 20.3458 31.8303 19.1458C31.1859 17.9458 30.3081 16.9902 29.197 16.2791C28.0859 15.568 26.8637 15.2125 25.5303 15.2125ZM19.4637 23.0125C19.4637 21.8125 19.7414 20.7125 20.297 19.7125C20.8526 18.7125 21.597 17.9236 22.5303 17.3458C23.4637 16.768 24.4637 16.4791 25.5303 16.4791C26.597 16.4791 27.597 16.768 28.5303 17.3458C29.4637 17.9236 30.2081 18.7125 30.7637 19.7125C31.3192 20.7125 31.597 21.8125 31.597 23.0125C31.597 23.9902 31.1303 25.2791 30.197 26.8791C29.4859 28.1236 28.5303 29.5014 27.3303 31.0125C26.797 31.768 26.4192 32.2458 26.197 32.4458C25.9748 32.6458 25.7526 32.7458 25.5303 32.7458C25.3081 32.7458 25.0859 32.6458 24.8637 32.4458C24.6414 32.2458 24.2637 31.768 23.7303 31.0125C22.5303 29.5014 21.5748 28.1236 20.8637 26.8791C19.9303 25.2791 19.4637 23.9902 19.4637 23.0125Z" fill="#DDDDDD"/>
<defs>
<linearGradient id="paint0_linear_70_1945" x1="15.1846" y1="-5.03321" x2="35.8759" y2="55.0586" gradientUnits="userSpaceOnUse">
<stop stop-color="#2A1454"/>
<stop offset="1" stop-color="#8750F7"/>
</linearGradient>
</defs>
</svg>
