<svg width="20" height="20" viewBox="0 0 20 20" fill="none" xmlns="http://www.w3.org/2000/svg">
<path d="M19.1333 20.0023H6.2C5.97778 20.0023 5.77778 19.9245 5.6 19.769C5.42222 19.6134 5.33333 19.4134 5.33333 19.169C5.33333 18.9245 5.42222 18.7134 5.6 18.5357C5.77778 18.3579 5.97778 18.269 6.2 18.269H17.0667L0.266667 1.46899C0.0888889 1.29121 0 1.0801 0 0.835653C0 0.591208 0.0777778 0.391208 0.233333 0.235653C0.388889 0.0800971 0.588889 0.00231934 0.833333 0.00231934C1.07778 0.00231934 1.28889 0.0912082 1.46667 0.268986L18.2667 17.069V6.20232C18.2667 5.9801 18.3556 5.7801 18.5333 5.60232C18.7111 5.42454 18.9222 5.33565 19.1667 5.33565C19.4111 5.33565 19.6111 5.42454 19.7667 5.60232C19.9222 5.7801 20 5.9801 20 6.20232V19.1357C20 19.4023 19.9222 19.6134 19.7667 19.769C19.6111 19.9245 19.4 20.0023 19.1333 20.0023Z" fill="#8750F7"/>
</svg>
