<svg width="18" height="18" viewBox="0 0 18 18" fill="none" xmlns="http://www.w3.org/2000/svg">
<path d="M15.7438 11.0839C15.6304 11.0839 15.5171 11.1311 15.4038 11.2256C15.2904 11.32 15.2338 11.4428 15.2338 11.5939V13.4073C15.2338 13.8606 15.0732 14.2478 14.7521 14.5689C14.431 14.89 14.0627 15.0506 13.6471 15.0506H4.35376C3.93821 15.0506 3.56987 14.89 3.24876 14.5689C2.92765 14.2478 2.7671 13.8606 2.7671 13.4073V11.5939C2.7671 11.4428 2.71043 11.32 2.5971 11.2256C2.48376 11.1311 2.36099 11.0839 2.22876 11.0839C2.09654 11.0839 1.97376 11.1311 1.86043 11.2256C1.7471 11.32 1.69043 11.4428 1.69043 11.5939V13.4073C1.69043 14.1628 1.95487 14.805 2.48376 15.3339C3.01265 15.8628 3.63599 16.1273 4.35376 16.1273H13.6471C14.3649 16.1273 14.9882 15.8628 15.5171 15.3339C16.046 14.805 16.3104 14.1628 16.3104 13.4073V11.5939C16.3104 11.4428 16.2538 11.32 16.1404 11.2256C16.0271 11.1311 15.8949 11.0839 15.7438 11.0839ZM8.60376 12.6139C8.7171 12.7273 8.84932 12.7839 9.00043 12.7839C9.15154 12.7839 9.28376 12.7273 9.3971 12.6139L12.4004 9.61059C12.476 9.49726 12.5138 9.37448 12.5138 9.24226C12.5138 9.11004 12.4665 8.9967 12.3721 8.90226C12.2777 8.80781 12.1643 8.75115 12.0321 8.73226C11.8999 8.71337 11.7771 8.76059 11.6638 8.87392L9.51043 10.9706V3.09392C9.51043 2.94281 9.46321 2.81059 9.36876 2.69726C9.27432 2.58392 9.15154 2.52726 9.00043 2.52726C8.84932 2.52726 8.72654 2.58392 8.6321 2.69726C8.53765 2.81059 8.49043 2.94281 8.49043 3.09392V10.9706L6.3371 8.87392C6.22376 8.76059 6.10099 8.70392 5.96876 8.70392C5.83654 8.70392 5.71376 8.75115 5.60043 8.84559C5.4871 8.94004 5.43043 9.06281 5.43043 9.21392C5.43043 9.36504 5.4871 9.49726 5.60043 9.61059L8.60376 12.6139Z" fill="#8750F7"/>
</svg>
