<svg width="15" height="17" viewBox="0 0 15 17" fill="none" xmlns="http://www.w3.org/2000/svg">
<path d="M3.625 14.8273H0.71875V5.48352H3.625V14.8273ZM2.15625 4.23352C1.25 4.23352 0.5 3.45227 0.5 2.51477C0.5 1.60852 1.25 0.858521 2.15625 0.858521C3.09375 0.858521 3.84375 1.60852 3.84375 2.51477C3.84375 3.45227 3.09375 4.23352 2.15625 4.23352ZM14.4688 14.8273H11.5938V10.296C11.5938 9.20227 11.5625 7.82727 10.0625 7.82727C8.5625 7.82727 8.34375 8.98352 8.34375 10.2023V14.8273H5.4375V5.48352H8.21875V6.76477H8.25C8.65625 6.04602 9.59375 5.26477 11 5.26477C13.9375 5.26477 14.5 7.20227 14.5 9.70227V14.8273H14.4688Z" fill="#8750F7"/>
<a href="https://www.linkedin.com/">
<rect fill="black" fill-opacity="0" y="-1.2" width="14" height="18.4"/>
</a>
</svg>
